<svg width="17" height="16" viewBox="0 0 17 16" fill="none" xmlns="http://www.w3.org/2000/svg">
<path d="M8.66667 9.33337C8.79852 9.33337 8.92741 9.29427 9.03705 9.22102C9.14668 9.14777 9.23213 9.04365 9.28259 8.92183C9.33305 8.80001 9.34625 8.66597 9.32052 8.53665C9.2948 8.40733 9.23131 8.28854 9.13807 8.1953C9.04484 8.10207 8.92605 8.03857 8.79673 8.01285C8.66741 7.98713 8.53336 8.00033 8.41154 8.05079C8.28973 8.10125 8.18561 8.18669 8.11235 8.29633C8.0391 8.40596 8 8.53485 8 8.66671C8 8.84352 8.07024 9.01309 8.19526 9.13811C8.32029 9.26314 8.48986 9.33337 8.66667 9.33337ZM12 9.33337C12.1319 9.33337 12.2607 9.29427 12.3704 9.22102C12.48 9.14777 12.5655 9.04365 12.6159 8.92183C12.6664 8.80001 12.6796 8.66597 12.6539 8.53665C12.6281 8.40733 12.5646 8.28854 12.4714 8.1953C12.3782 8.10207 12.2594 8.03857 12.1301 8.01285C12.0007 7.98713 11.8667 8.00033 11.7449 8.05079C11.6231 8.10125 11.5189 8.18669 11.4457 8.29633C11.3724 8.40596 11.3333 8.53485 11.3333 8.66671C11.3333 8.84352 11.4036 9.01309 11.5286 9.13811C11.6536 9.26314 11.8232 9.33337 12 9.33337ZM8.66667 12C8.79852 12 8.92741 11.9609 9.03705 11.8877C9.14668 11.8144 9.23213 11.7103 9.28259 11.5885C9.33305 11.4667 9.34625 11.3326 9.32052 11.2033C9.2948 11.074 9.23131 10.9552 9.13807 10.862C9.04484 10.7687 8.92605 10.7052 8.79673 10.6795C8.66741 10.6538 8.53336 10.667 8.41154 10.7175C8.28973 10.7679 8.18561 10.8534 8.11235 10.963C8.0391 11.0726 8 11.2015 8 11.3334C8 11.5102 8.07024 11.6798 8.19526 11.8048C8.32029 11.9298 8.48986 12 8.66667 12ZM12 12C12.1319 12 12.2607 11.9609 12.3704 11.8877C12.48 11.8144 12.5655 11.7103 12.6159 11.5885C12.6664 11.4667 12.6796 11.3326 12.6539 11.2033C12.6281 11.074 12.5646 10.9552 12.4714 10.862C12.3782 10.7687 12.2594 10.7052 12.1301 10.6795C12.0007 10.6538 11.8667 10.667 11.7449 10.7175C11.6231 10.7679 11.5189 10.8534 11.4457 10.963C11.3724 11.0726 11.3333 11.2015 11.3333 11.3334C11.3333 11.5102 11.4036 11.6798 11.5286 11.8048C11.6536 11.9298 11.8232 12 12 12ZM5.33333 9.33337C5.46519 9.33337 5.59408 9.29427 5.70371 9.22102C5.81335 9.14777 5.89879 9.04365 5.94925 8.92183C5.99971 8.80001 6.01291 8.66597 5.98719 8.53665C5.96147 8.40733 5.89797 8.28854 5.80474 8.1953C5.7115 8.10207 5.59271 8.03857 5.46339 8.01285C5.33407 7.98713 5.20003 8.00033 5.07821 8.05079C4.95639 8.10125 4.85227 8.18669 4.77902 8.29633C4.70577 8.40596 4.66667 8.53485 4.66667 8.66671C4.66667 8.84352 4.7369 9.01309 4.86193 9.13811C4.98695 9.26314 5.15652 9.33337 5.33333 9.33337ZM13.3333 2.66671H12.6667V2.00004C12.6667 1.82323 12.5964 1.65366 12.4714 1.52864C12.3464 1.40361 12.1768 1.33337 12 1.33337C11.8232 1.33337 11.6536 1.40361 11.5286 1.52864C11.4036 1.65366 11.3333 1.82323 11.3333 2.00004V2.66671H6V2.00004C6 1.82323 5.92976 1.65366 5.80474 1.52864C5.67971 1.40361 5.51014 1.33337 5.33333 1.33337C5.15652 1.33337 4.98695 1.40361 4.86193 1.52864C4.7369 1.65366 4.66667 1.82323 4.66667 2.00004V2.66671H4C3.46957 2.66671 2.96086 2.87742 2.58579 3.25249C2.21071 3.62757 2 4.13627 2 4.66671V12.6667C2 13.1971 2.21071 13.7058 2.58579 14.0809C2.96086 14.456 3.46957 14.6667 4 14.6667H13.3333C13.8638 14.6667 14.3725 14.456 14.7475 14.0809C15.1226 13.7058 15.3333 13.1971 15.3333 12.6667V4.66671C15.3333 4.13627 15.1226 3.62757 14.7475 3.25249C14.3725 2.87742 13.8638 2.66671 13.3333 2.66671V2.66671ZM14 12.6667C14 12.8435 13.9298 13.0131 13.8047 13.1381C13.6797 13.2631 13.5101 13.3334 13.3333 13.3334H4C3.82319 13.3334 3.65362 13.2631 3.5286 13.1381C3.40357 13.0131 3.33333 12.8435 3.33333 12.6667V6.66671H14V12.6667ZM14 5.33337H3.33333V4.66671C3.33333 4.4899 3.40357 4.32033 3.5286 4.1953C3.65362 4.07028 3.82319 4.00004 4 4.00004H13.3333C13.5101 4.00004 13.6797 4.07028 13.8047 4.1953C13.9298 4.32033 14 4.4899 14 4.66671V5.33337ZM5.33333 12C5.46519 12 5.59408 11.9609 5.70371 11.8877C5.81335 11.8144 5.89879 11.7103 5.94925 11.5885C5.99971 11.4667 6.01291 11.3326 5.98719 11.2033C5.96147 11.074 5.89797 10.9552 5.80474 10.862C5.7115 10.7687 5.59271 10.7052 5.46339 10.6795C5.33407 10.6538 5.20003 10.667 5.07821 10.7175C4.95639 10.7679 4.85227 10.8534 4.77902 10.963C4.70577 11.0726 4.66667 11.2015 4.66667 11.3334C4.66667 11.5102 4.7369 11.6798 4.86193 11.8048C4.98695 11.9298 5.15652 12 5.33333 12Z" fill="#222222"/>
</svg>
