<svg width="16" height="16" viewBox="0 0 16 16" fill="none" xmlns="http://www.w3.org/2000/svg">
<path d="M13.64 6.42004C13.5464 5.44599 13.2021 4.51276 12.6408 3.71126C12.0794 2.90975 11.32 2.26726 10.4366 1.84637C9.55324 1.42548 8.5759 1.24052 7.59979 1.30951C6.62368 1.3785 5.68207 1.69908 4.86665 2.24004C4.16611 2.70847 3.57802 3.32624 3.14461 4.04897C2.7112 4.7717 2.44324 5.58145 2.35998 6.42004C2.2783 7.25315 2.3831 8.09399 2.66676 8.88156C2.95043 9.66913 3.40585 10.3837 3.99998 10.9734L7.53332 14.5134C7.59529 14.5759 7.66902 14.6255 7.75026 14.6593C7.8315 14.6932 7.91864 14.7106 8.00665 14.7106C8.09466 14.7106 8.18179 14.6932 8.26303 14.6593C8.34427 14.6255 8.41801 14.5759 8.47998 14.5134L12 10.9734C12.5941 10.3837 13.0495 9.66913 13.3332 8.88156C13.6169 8.09399 13.7217 7.25315 13.64 6.42004V6.42004ZM11.0666 10.0334L7.99998 13.1L4.93331 10.0334C4.48137 9.58141 4.13518 9.03493 3.91963 8.43322C3.70407 7.8315 3.6245 7.18951 3.68665 6.55338C3.74919 5.90745 3.95449 5.28348 4.2877 4.7266C4.6209 4.16973 5.07369 3.69385 5.61332 3.33338C6.32061 2.86353 7.15085 2.61291 7.99998 2.61291C8.84911 2.61291 9.67935 2.86353 10.3866 3.33338C10.9246 3.69245 11.3764 4.16623 11.7096 4.72067C12.0427 5.27511 12.2489 5.89644 12.3133 6.54004C12.3775 7.17833 12.2989 7.82289 12.0833 8.42708C11.8677 9.03126 11.5204 9.57993 11.0666 10.0334V10.0334ZM7.99998 4.00004C7.40664 4.00004 6.82662 4.17599 6.33327 4.50563C5.83992 4.83528 5.45541 5.30381 5.22834 5.85199C5.00128 6.40017 4.94187 7.00337 5.05763 7.58531C5.17338 8.16726 5.4591 8.70181 5.87866 9.12136C6.29822 9.54092 6.83277 9.82664 7.41471 9.9424C7.99665 10.0582 8.59985 9.99875 9.14803 9.77168C9.69621 9.54462 10.1647 9.1601 10.4944 8.66675C10.824 8.17341 11 7.59339 11 7.00004C10.9982 6.20494 10.6816 5.4429 10.1194 4.88067C9.55713 4.31844 8.79509 4.0018 7.99998 4.00004V4.00004ZM7.99998 8.66671C7.67035 8.66671 7.34811 8.56896 7.07403 8.38583C6.79995 8.20269 6.58633 7.94239 6.46018 7.63785C6.33404 7.33331 6.30103 6.99819 6.36534 6.67489C6.42965 6.35159 6.58838 6.05462 6.82147 5.82153C7.05456 5.58844 7.35153 5.42971 7.67483 5.3654C7.99813 5.30109 8.33324 5.3341 8.63779 5.46024C8.94233 5.58639 9.20263 5.80001 9.38576 6.07409C9.5689 6.34817 9.66665 6.67041 9.66665 7.00004C9.66665 7.44207 9.49105 7.86599 9.17849 8.17855C8.86593 8.49112 8.44201 8.66671 7.99998 8.66671V8.66671Z" fill="#222222"/>
</svg>
