<svg width="17" height="16" viewBox="0 0 17 16" fill="none" xmlns="http://www.w3.org/2000/svg">
<path d="M14.9999 6.44664C14.9578 6.3247 14.8812 6.21759 14.7794 6.13831C14.6776 6.05903 14.5551 6.01097 14.4265 5.99997L10.6332 5.44664L8.9332 1.99997C8.87861 1.88726 8.79337 1.7922 8.68726 1.72569C8.58114 1.65918 8.45843 1.6239 8.3332 1.6239C8.20796 1.6239 8.08525 1.65918 7.97914 1.72569C7.87302 1.7922 7.78779 1.88726 7.7332 1.99997L6.0332 5.43997L2.23986 5.99997C2.11648 6.01751 2.00048 6.06928 1.90503 6.14941C1.80958 6.22954 1.7385 6.33482 1.69986 6.45331C1.66449 6.56909 1.66132 6.69232 1.69068 6.80977C1.72004 6.92722 1.78083 7.03446 1.86653 7.11997L4.61986 9.78664L3.9532 13.5733C3.9294 13.6983 3.94186 13.8275 3.98911 13.9456C4.03636 14.0637 4.11643 14.1659 4.21986 14.24C4.32067 14.312 4.43958 14.3546 4.56323 14.3628C4.68688 14.3711 4.81038 14.3447 4.91986 14.2866L8.3332 12.5066L11.7332 14.2933C11.8268 14.3461 11.9324 14.3737 12.0399 14.3733C12.1811 14.3738 12.3188 14.3295 12.4332 14.2466C12.5366 14.1725 12.6167 14.0704 12.6639 13.9523C12.7112 13.8341 12.7237 13.705 12.6999 13.58L12.0332 9.79331L14.7865 7.12664C14.8828 7.04509 14.9539 6.93791 14.9917 6.81754C15.0295 6.69717 15.0323 6.56856 14.9999 6.44664ZM10.8999 9.11331C10.8217 9.18893 10.7632 9.28254 10.7295 9.38596C10.6958 9.48938 10.6879 9.59947 10.7065 9.70664L11.1865 12.5L8.67986 11.1666C8.58341 11.1153 8.47581 11.0884 8.36653 11.0884C8.25725 11.0884 8.14965 11.1153 8.0532 11.1666L5.54653 12.5L6.02653 9.70664C6.04515 9.59947 6.03727 9.48938 6.00357 9.38596C5.96987 9.28254 5.91138 9.18893 5.8332 9.11331L3.8332 7.11331L6.63986 6.70664C6.74786 6.69162 6.85053 6.65034 6.93886 6.58641C7.0272 6.52248 7.0985 6.43787 7.14653 6.33997L8.3332 3.79997L9.58653 6.34664C9.63456 6.44453 9.70586 6.52915 9.7942 6.59308C9.88253 6.657 9.9852 6.69829 10.0932 6.71331L12.8999 7.11997L10.8999 9.11331Z" fill="#222222"/>
</svg>
