<svg width="75" height="76" viewBox="0 0 75 76" fill="none" xmlns="http://www.w3.org/2000/svg">
<g clip-path="url(#clip0_44_18)">
<path d="M2.51907 34.2619L2.51897 34.2592C2.37636 30.221 3.03125 26.1956 4.44383 22.4215C5.85638 18.6476 7.99721 15.2034 10.7372 12.2913C13.4771 9.37934 16.7602 7.05868 20.3911 5.46386C24.0218 3.86909 27.928 3.03175 31.8793 2.99986L31.8823 2.99983C48.1649 2.85209 61.6339 16.3651 62.0384 33.1485C62.0384 33.1492 62.0384 33.1498 62.0384 33.1504L62.6337 58.5818L62.6338 58.5855C62.6483 59.1759 62.5479 59.7624 62.3394 60.3108C62.1308 60.8591 61.819 61.3568 61.4243 61.7765C61.0298 62.1961 60.5603 62.5293 60.0444 62.7595C59.5286 62.9896 58.9752 63.113 58.4155 63.1239L58.4125 63.124L33.4098 63.6387C33.4097 63.6387 33.4096 63.6387 33.4096 63.6387C17.0336 63.9744 3.09357 50.9501 2.51907 34.2619Z" fill="white" stroke="#FE5000" stroke-width="6" stroke-linejoin="round"/>
<path fill-rule="evenodd" clip-rule="evenodd" d="M33.769 19.1718L37.5432 26.387C37.6371 26.5651 37.7681 26.7201 37.9269 26.8415C38.0858 26.9628 38.2687 27.0474 38.463 27.0894L46.1484 28.7244C46.381 28.7737 46.5967 28.8842 46.7741 29.0449C46.9515 29.2055 47.0843 29.4107 47.1594 29.64C47.2344 29.8692 47.249 30.1145 47.2016 30.3512C47.1543 30.588 47.0467 30.808 46.8896 30.9892L41.4961 37.2294C41.3713 37.3753 41.2776 37.5458 41.2207 37.7302C41.1639 37.9147 41.1451 38.1091 41.1657 38.3013L42.0914 46.67C42.1181 46.9155 42.0795 47.1639 41.9797 47.3891C41.8799 47.6143 41.7225 47.8081 41.524 47.9504C41.3254 48.0926 41.093 48.1781 40.8509 48.1979C40.6089 48.2176 40.366 48.171 40.1477 48.0628L33.1588 44.6172C32.9734 44.5251 32.7698 44.4773 32.5635 44.4773C32.3572 44.4773 32.1536 44.5251 31.9682 44.6172L24.9792 48.0628C24.7609 48.171 24.5181 48.2176 24.276 48.1979C24.0339 48.1781 23.8015 48.0926 23.603 47.9504C23.4045 47.8081 23.2471 47.6143 23.1473 47.3891C23.0475 47.1639 23.0089 46.9155 23.0356 46.67L23.9702 38.3013C23.9911 38.1095 23.9725 37.9155 23.9156 37.7315C23.8587 37.5475 23.7648 37.3775 23.6398 37.2325L18.2463 30.9892C18.0892 30.808 17.9816 30.588 17.9343 30.3512C17.8869 30.1145 17.9015 29.8692 17.9765 29.64C18.0515 29.4107 18.1844 29.2055 18.3618 29.0449C18.5392 28.8842 18.7549 28.7737 18.9875 28.7244L26.6699 27.0894C26.8645 27.0482 27.0478 26.9639 27.2067 26.8425C27.3657 26.7211 27.4964 26.5656 27.5897 26.387L31.3669 19.1718C31.4828 18.9501 31.6558 18.7647 31.8674 18.6354C32.0789 18.5061 32.3211 18.4378 32.5679 18.4378C32.8148 18.4378 33.0569 18.5061 33.2685 18.6354C33.4801 18.7647 33.6531 18.9501 33.769 19.1718Z" fill="#D3AF37"/>
<path d="M61.3348 76C68.6057 76 74.5 70.0043 74.5 62.6082C74.5 55.2121 68.6057 49.2164 61.3348 49.2164C54.0638 49.2164 48.1695 55.2121 48.1695 62.6082C48.1695 70.0043 54.0638 76 61.3348 76Z" fill="#1C1939"/>
<path d="M61.3348 74.801C68.6057 74.801 74.5 68.8053 74.5 61.4092C74.5 54.0131 68.6057 48.0174 61.3348 48.0174C54.0638 48.0174 48.1695 54.0131 48.1695 61.4092C48.1695 68.8053 54.0638 74.801 61.3348 74.801Z" fill="white"/>
<path d="M61.3348 71.8156C66.9848 71.8156 71.5651 67.1565 71.5651 61.4092C71.5651 55.6619 66.9848 51.0027 61.3348 51.0027C55.6847 51.0027 51.1044 55.6619 51.1044 61.4092C51.1044 67.1565 55.6847 71.8156 61.3348 71.8156Z" fill="#D3AF37"/>
<path d="M58.1588 57.2551V65.5512C58.1589 65.638 58.1809 65.7233 58.2228 65.7989C58.2648 65.8745 58.3251 65.9379 58.3981 65.9829C58.471 66.028 58.5542 66.0531 58.6394 66.056C58.7247 66.0588 58.8093 66.0393 58.885 65.9993L66.764 61.8543C66.8475 61.8127 66.9179 61.7481 66.9672 61.6678C67.0164 61.5875 67.0425 61.4947 67.0425 61.4001C67.0425 61.3055 67.0164 61.2127 66.9672 61.1324C66.9179 61.0522 66.8475 60.9875 66.764 60.9459L58.897 56.7949C58.82 56.7514 58.733 56.7294 58.6449 56.7313C58.5569 56.7333 58.4709 56.7589 58.3958 56.8058C58.3207 56.8526 58.2592 56.9189 58.2175 56.9978C58.1759 57.0768 58.1556 57.1656 58.1588 57.2551Z" fill="white"/>
</g>
<defs>
<clipPath id="clip0_44_18">
<rect width="75" height="76" fill="white" transform="translate(-0.5)"/>
</clipPath>
</defs>
</svg>
